# xmcd
#
# Track frame offsets:
# 150
# 24027
# 42282
# 58180
# 80840
# 95525
# 109075
# 122285
# 138410
# 158300
# 181145
# 198220
#
# Disc length: 2922 seconds
#
#
# Revision: 4
# Processed by: cddbd v1.5.1PL0 Copyright (c) Steve Scherf et al.
# Submitted via: FreeRIP 2.90 
#
DISCID=8c0b680c
DTITLE=Various Artist - Amigos - vol. 1
DYEAR=1996
DGENRE=Sertanejo
TTITLE0=Leandro and Leonardo, Zezé Di Camargo and Luciano, Chitãozinho and Xororó - Disparada
TTITLE1=Zezé Di Camargo and Luciano - Menina Veneno
TTITLE2=Chitãozinho and Xororó - Bailão de Peão
TTITLE3=Leandro and Leonardo - Eu Juro ( I Swear )
TTITLE4=Leandro and Leonardo, Zezé Di Camargo and Luciano, Chitãozinho and Xororó - Noite Feliz
TTITLE5=Leandro and Leonardo, Zezé Di Camargo and Luciano, Chitãozinho and Xororó - Ave Maria
TTITLE6=Zezé Di Camargo and Chitãozinho - Fio de Cabelo
TTITLE7=Luciano and Leonardo - É o Amor
TTITLE8=Leandro and Xoroó - Temporal de Amor
TTITLE9=Chitãozinho and Xororó - Um Homem Quando Ama ( Have You Ever Really Loved A Woman )
TTITLE10=Zezé Di Camargo and Luciano - Pão de Mel
TTITLE11=Leandro and Leonardo - Festa de Rodeio
EXTD=1996/10/02 - 02/10/1996 - Americanas - R$ 13,50 - dolar: R$ 1,04 - SomLivre - Brasil - Especial da Rede Globo de TV - gravado ao vivo - atualizado em 23/09/2003 - by MSF - Brasil
EXTT0=
EXTT1=
EXTT2=
EXTT3=
EXTT4=
EXTT5=
EXTT6=
EXTT7=
EXTT8=
EXTT9=
EXTT10=
EXTT11=
PLAYORDER=
